<?xml version="1.0" encoding="utf-8"?>
<!-- Generator: Adobe Illustrator 25.2.1, SVG Export Plug-In . SVG Version: 6.00 Build 0)  -->
<svg version="1.1" id="Layer_1" xmlns="http://www.w3.org/2000/svg" xmlns:xlink="http://www.w3.org/1999/xlink" x="0px" y="0px"
	 viewBox="0 0 512 512" style="enable-background:new 0 0 512 512;" xml:space="preserve">
<style type="text/css">
	.st0{opacity:0.24;}
	.st1{fill:#12151B;}
	.st2{fill:#FE005F;}
	.st3{fill:#44C6E9;}
</style>
<g id="Layer_1_1_" class="st0">
	<g>
		<g>
			<path class="st1" d="M449.9,251.9l-105-25.4c-0.3-0.1-0.7-0.3-1.1-0.4c-3.8-1.6-5.7-6-4.1-9.8l65.6-159.8l3.7-8.9l7.6-18.7
				c1.3-2.8,0.7-6.2-1.5-8.4c-2.9-3-7.7-2.9-10.6,0l-17.9,17.2l-0.1,0.1l-0.3-0.2c-26.3-9.9-54.1-15.1-82.2-15.3
				c-131.5-0.9-238.8,105-239.7,236.5C64.6,320.1,88,379,129.7,423.9l1.3,1.4c14.9,15.4,31.8,28.7,50.2,39.6c0.1,0,0.1,0,0.1,0
				l0.1-0.2l-0.1,0.3l-14.1,25.8c-1,1.9-1.1,4.2-0.3,6.2c1.6,3.8,5.9,5.7,9.8,4.2c0.7-0.2,1.4-0.7,2-1.2l274.4-235.1
				c1.2-1,2-2.4,2.4-3.9C456.5,256.9,454,252.8,449.9,251.9z M263.8,313.3l-56.2,103.1l-0.1,0.2c-63.2-36.2-102.5-103.2-103.3-176
				c-0.1-9,0.4-18,1.5-26.9c1.9-16.2,5.6-32.2,11.2-47.5C155.8,59.3,274,4.3,380.9,43.2l-1.8,1.7L150.8,264.2c-1,1-1.8,2.3-2.1,3.7
				c-1,4,1.5,8.1,5.5,9.1l104.7,25.4c0.7,0.1,1.3,0.4,1.9,0.7C264.5,305.1,265.8,309.7,263.8,313.3z"/>
		</g>
	</g>
</g>
<g id="Layer_1_2_">
	<g>
		<g>
			<path class="st2" d="M382.5,33.8l-5.6,5.4c-106.9-38.9-225.1,16.1-264,123c-5.6,15.3-9.3,31.3-11.2,47.5
				c-1.1,8.9-1.6,17.9-1.5,26.9c0.8,72.8,40.1,139.8,103.3,176l-0.2,0.4l-26,47.9c0,0,0,0-0.1,0c-18.4-10.9-35.3-24.2-50.2-39.6
				l-1.3-1.4C84,375,60.6,316.1,60.3,254.8C61.2,123.3,168.5,17.4,300,18.3c28.1,0.2,55.9,5.4,82.2,15.3L382.5,33.8z"/>
			<path class="st3" d="M451.5,257c-0.4,1.5-1.2,2.9-2.4,3.9L174.7,496c-0.6,0.5-1.3,1-2,1.2c-3.9,1.5-8.2-0.4-9.8-4.2
				c-0.8-2-0.7-4.3,0.3-6.2l14.1-25.8l0.1-0.3l26-47.9l0.2-0.4l56.2-103.1c2-3.6,0.7-8.2-3-10.2l0,0c-0.6-0.3-1.2-0.6-1.9-0.7
				L150.2,273c-4-1-6.5-5.1-5.5-9.1l0,0c0.3-1.4,1.1-2.7,2.1-3.7L375.1,40.9l1.8-1.7l5.6-5.4l0.1-0.1l17.9-17.2
				c2.9-2.9,7.7-3,10.6,0c2.2,2.2,2.8,5.6,1.5,8.4L405,43.6l-3.7,8.9l-65.6,159.8c-1.6,3.8,0.3,8.2,4.1,9.8c0.4,0.1,0.8,0.3,1.1,0.4
				l105,25.4C450,248.8,452.5,252.9,451.5,257L451.5,257z"/>
		</g>
	</g>
</g>
</svg>
