<svg id="Layer_1" data-name="Layer 1" xmlns="http://www.w3.org/2000/svg" viewBox="0 0 512 512"><path d="M382.49,33.75l-5.59,5.38A205.95,205.95,0,0,0,101.73,209.67a198.88,198.88,0,0,0-1.46,26.86,205.37,205.37,0,0,0,103.32,176l-.21.37-26,47.92s0-.05-.1-.05a241.7,241.7,0,0,1-50.17-39.61l-1.31-1.36a244,244,0,0,1-65.49-165C61.22,123.28,168.52,17.44,300,18.33a238.6,238.6,0,0,1,82.21,15.26Z" fill="#fe005f"/><path d="M451.48,257a7.23,7.23,0,0,1-2.41,3.86L174.69,496a6.78,6.78,0,0,1-2,1.25,7.53,7.53,0,0,1-9.46-10.45l14.06-25.76.1-.27,26-47.92.21-.37,56.24-103.06a7.5,7.5,0,0,0-3-10.19,7.07,7.07,0,0,0-1.89-.73l-104.73-25.4a7.53,7.53,0,0,1-5.54-9.1,7.36,7.36,0,0,1,2.09-3.66L375.12,40.86l1.78-1.73,5.59-5.38.1-.11L400.52,16.4a7.52,7.52,0,0,1,12.18,8.41L405,43.63l-3.66,8.88L335.76,212.33a7.52,7.52,0,0,0,4.08,9.78,10.15,10.15,0,0,0,1.15.36L446,247.82A7.53,7.53,0,0,1,451.48,257Z" fill="#44c6e9"/></svg>