<svg xmlns="http://www.w3.org/2000/svg" xmlns:xlink="http://www.w3.org/1999/xlink" viewBox="0 0 512 512"><g style="isolation:isolate"><g id="Layer_1" data-name="Layer 1"><image width="305" height="372" transform="translate(105 84)" opacity="0.15" xlink:href="iconoLogo++1.png" style="mix-blend-mode:multiply"/><path d="M194,409.91a174.63,174.63,0,0,1-36.1-28.46l-.94-1a175,175,0,0,1-47-118.31A170.69,170.69,0,0,1,340.82,103.54l.2.12-4,3.86A147.66,147.66,0,0,0,139.7,229.8a144.12,144.12,0,0,0-1,19.26,147.26,147.26,0,0,0,74.09,126.2Z" fill="#fe005f"/><path d="M212.74,375.22l40.33-73.9a5.36,5.36,0,0,0-2.14-7.29h0a5,5,0,0,0-1.36-.53l-75.09-18.21a5.39,5.39,0,0,1-4-6.52h0a5.2,5.2,0,0,1,1.5-2.63L335.73,108.76l1.28-1.24,4-3.86.07-.08,12.85-12.36a5.4,5.4,0,0,1,8.74,6l-5.52,13.49-2.63,6.37-47,114.6a5.39,5.39,0,0,0,2.92,7,8,8,0,0,0,.83.26l75.3,18.17a5.42,5.42,0,0,1,3.94,6.55v0a5.21,5.21,0,0,1-1.73,2.76L192,435.11a5.13,5.13,0,0,1-1.44.9,5.4,5.4,0,0,1-6.78-7.5L193.88,410Z" fill="#44c6e9"/></g></g></svg>