<svg xmlns="http://www.w3.org/2000/svg" viewBox="0 0 1136.22 1403.62">
<g id="f2fd77e4-d324-4de0-a452-0a53441bd63e" data-name="Layer 2">
  <g id="b32c6d5f-493b-4a90-9aaa-796fadecf112" data-name="Layer 9">
    <path d="M996.6,91.64a13.75,13.75,0,0,1-6.84,11.92A594.66,594.66,0,0,0,714.18,36.34c-307.66,0-561,232.46-594,531.27a598.25,598.25,0,0,0,21.69,245.74c44.66,146.15,143.92,268.45,274,343.14a591.87,591.87,0,0,0,119,51.93,7.74,7.74,0,0,1,2.67,13.28L411.9,1328.82a7.89,7.89,0,0,1-8.31,1.17,674,674,0,0,1-64.11-33.57,693.79,693.79,0,0,1-145.67-115c-1.29-1.32-2.53-2.67-3.77-4C73,1051.59,1,883.17,0,698,2.05,318.43,310.33,11.47,690.3,11.47a688.59,688.59,0,0,1,244,44.36l54.46,23.34A13.8,13.8,0,0,1,996.6,91.64Z" fill="#fe005f"/><path d="M1128.59,715.46,332,1398.19a23,23,0,0,1-5.82,3.69c-17.59,7.72-38-11.59-27.54-30.72l40.82-74.72,76.4-139.93L579.8,856.23a21.82,21.82,0,0,0-14-31.67l-304.7-73.51a21.78,21.78,0,0,1-10-36.91L913.79,77.21l21.72-20.89,52.12-50.1c17-16.31,44.26,2.19,35.3,24L1000.47,85l-10.53,25.71-190.37,464a21.8,21.8,0,0,0,15,29.48l304.92,73.55C1136.82,681.85,1142.08,703.87,1128.59,715.46Z" fill="#44c6e9"/>
    </g>
    </g>
    </svg>