<svg xmlns="http://www.w3.org/2000/svg" viewBox="0 0 431.03 92.52"><g id="Layer_2" data-name="Layer 2"><g id="logoBarra"><g id="Neon"><path d="M268.8,27.1a1.33,1.33,0,0,1,.34-.91,1.14,1.14,0,0,1,.92-.37h6.57a1.67,1.67,0,0,1,.76.18,1.77,1.77,0,0,1,.64.59q4.89,7,9.69,13.84l9.69,13.84V26.9a1.2,1.2,0,0,1,1.25-1.08h5.52a1.46,1.46,0,0,1,1,.34,1.12,1.12,0,0,1,.42.91v40q0,1.17-1.35,1.17H298a1.51,1.51,0,0,1-1.17-.77q-5-7.29-10-14.56t-10-14.58V67a1.33,1.33,0,0,1-.3.94,1.38,1.38,0,0,1-1,.31h-5.49A1.1,1.1,0,0,1,268.8,67Z" fill="#fe005f"/><path d="M343.27,64.2a20.46,20.46,0,0,1-5.5,3.37,17.07,17.07,0,0,1-6.56,1.23,18.46,18.46,0,0,1-7.31-1.46,19.1,19.1,0,0,1-6.06-4,19.3,19.3,0,0,1-4.13-6A17.8,17.8,0,0,1,312.18,50a19,19,0,0,1,.63-4.91,18.77,18.77,0,0,1,4.6-8.25,17.52,17.52,0,0,1,3.7-2.95A18.09,18.09,0,0,1,325.54,32a18.82,18.82,0,0,1,5-.66,17.74,17.74,0,0,1,4.29.52,19.69,19.69,0,0,1,4,1.5,19.46,19.46,0,0,1,3.56,2.36,16.93,16.93,0,0,1,2.91,3.13A16.66,16.66,0,0,1,347.87,44a22.21,22.21,0,0,1,.8,6.14,13.06,13.06,0,0,1-.07,1.39,1.75,1.75,0,0,1-.36.9,1.68,1.68,0,0,1-.86.5,6.59,6.59,0,0,1-1.6.15H320.44a9.8,9.8,0,0,0,1.41,3.65,10.94,10.94,0,0,0,2.47,2.68,10.44,10.44,0,0,0,3.12,1.66,10.72,10.72,0,0,0,3.37.56,11.69,11.69,0,0,0,2.47-.26,13.38,13.38,0,0,0,2.22-.68,13.08,13.08,0,0,0,1.9-1,11.33,11.33,0,0,0,1.53-1.16s0,0,0,0a5.22,5.22,0,0,1,.66-.5,1.31,1.31,0,0,1,.66-.18,1.34,1.34,0,0,1,.58.17,2.1,2.1,0,0,1,.65.57c.51.63.95,1.16,1.31,1.57s.66.77.89,1.06a5.68,5.68,0,0,1,.5.74,1.45,1.45,0,0,1,.15.63A2.15,2.15,0,0,1,343.27,64.2ZM330.58,38.43a9.25,9.25,0,0,0-3.28.61,11.05,11.05,0,0,0-2.93,1.68,11.41,11.41,0,0,0-2.32,2.48,10.14,10.14,0,0,0-1.44,3.09h20.23a11.15,11.15,0,0,0-1.39-3.19,10,10,0,0,0-2.24-2.48,9.64,9.64,0,0,0-3-1.62A11.27,11.27,0,0,0,330.58,38.43Z" fill="#fe005f"/><path d="M355,50.16a18.48,18.48,0,0,1,5.51-13.3A18.12,18.12,0,0,1,364.27,34a18.83,18.83,0,0,1,4.47-1.89,18.81,18.81,0,0,1,9.95,0,18.84,18.84,0,0,1,8.25,4.8,18.85,18.85,0,0,1,4.84,18.3,18.51,18.51,0,0,1-1.9,4.47,19.19,19.19,0,0,1-2.94,3.78,18.42,18.42,0,0,1-3.78,2.93,18.89,18.89,0,0,1-4.47,1.89,18.81,18.81,0,0,1-9.95,0,19.25,19.25,0,0,1-4.47-1.89,18.21,18.21,0,0,1-3.79-2.93,18.87,18.87,0,0,1-3-3.78A18.6,18.6,0,0,1,355,50.16Zm8,0a11.85,11.85,0,0,0,.8,4.33A10.91,10.91,0,0,0,366.05,58a10.39,10.39,0,0,0,3.39,2.4,10.2,10.2,0,0,0,4.27.89,9.89,9.89,0,0,0,4.18-.89,10.15,10.15,0,0,0,3.33-2.4,11.16,11.16,0,0,0,2.19-3.55,12.38,12.38,0,0,0,0-8.65,11.68,11.68,0,0,0-2.19-3.61,10.54,10.54,0,0,0-3.33-2.49,9.47,9.47,0,0,0-4.18-.92,9.77,9.77,0,0,0-4.27.92,10.79,10.79,0,0,0-3.39,2.49,11.41,11.41,0,0,0-2.23,3.61A11.91,11.91,0,0,0,363,50.16Z" fill="#fe005f"/><path d="M399.09,32.79a1.61,1.61,0,0,1,.66-.58,1,1,0,0,1,.68-.24h3.75a1.42,1.42,0,0,1,1.22.54,3.13,3.13,0,0,1,.55,1.2l.31,3a12.1,12.1,0,0,1,1.61-1.91,10.89,10.89,0,0,1,2.28-1.69,12.45,12.45,0,0,1,3-1.2,14.79,14.79,0,0,1,3.81-.46,14.12,14.12,0,0,1,6,1.22A12.7,12.7,0,0,1,427.37,36a14.35,14.35,0,0,1,2.73,5,19.7,19.7,0,0,1,.93,6.14V66.19a2.2,2.2,0,0,1-.48,1.54,1.87,1.87,0,0,1-1.4.51H424.8a2.09,2.09,0,0,1-1.53-.42,2.36,2.36,0,0,1-.38-1.52v-19a8.63,8.63,0,0,0-.52-3,7.94,7.94,0,0,0-1.5-2.58,7.26,7.26,0,0,0-2.44-1.83,8.08,8.08,0,0,0-6.1-.16,9.27,9.27,0,0,0-2.58,1.5,8.46,8.46,0,0,0-1.95,2.36,6.64,6.64,0,0,0-.8,3.13V65.25c0,.36,0,.72-.05,1.08a3.14,3.14,0,0,1-.25,1,1.57,1.57,0,0,1-.53.68,1.36,1.36,0,0,1-.88.26h-4.72a1.86,1.86,0,0,1-1.38-.44,1.71,1.71,0,0,1-.44-1.27V33.65A1.43,1.43,0,0,1,399.09,32.79Z" fill="#fe005f"/><path d="M373.29,21a1.79,1.79,0,0,1,.65-.93,1.59,1.59,0,0,1,.91-.29H380a.81.81,0,0,1,.65.22.8.8,0,0,1,.19.53,3.14,3.14,0,0,1-.05.51,2.09,2.09,0,0,1-.16.54l-2.75,6.14c-.37.81-.88,1.22-1.53,1.22h-4.52c-.33,0-.54-.08-.64-.24a1,1,0,0,1-.15-.55,5.78,5.78,0,0,1,0-.58,1.85,1.85,0,0,1,.18-.6Z" fill="#fe005f"/></g><g id="Icono"><path d="M243.88,6a1.07,1.07,0,0,1-.06.35.93.93,0,0,1-.39.44,39.4,39.4,0,0,0-57.31,30.58,38.05,38.05,0,0,0-.28,5.14,39.32,39.32,0,0,0,27.61,37.1.51.51,0,0,1,.17.88l-8.28,7.06a.51.51,0,0,1-.54.08,42.46,42.46,0,0,1-4.23-2.22,45.76,45.76,0,0,1-9.6-7.58l-.25-.26A46.63,46.63,0,0,1,178.19,46,45.55,45.55,0,0,1,239.78,3.68l3.59,1.54A.91.91,0,0,1,243.88,6Z" fill="#fe005f"/><path d="M252.58,47.16l-52.5,45a1.25,1.25,0,0,1-.39.24,1.44,1.44,0,0,1-1.81-2l2.69-4.93,5-9.22,10.8-19.79a1.44,1.44,0,0,0-.93-2.09L195.4,49.51a1.44,1.44,0,0,1-.66-2.44l43.69-42,1.43-1.38,3.43-3.3A1.44,1.44,0,0,1,245.62,2L244.14,5.6l-.7,1.7L230.9,37.88a1.43,1.43,0,0,0,1,1.94L252,44.67A1.44,1.44,0,0,1,252.58,47.16Z" fill="#44c6e9"/></g><g id="Rayo"><path d="M0,27.2c0-.89.42-1.34,1.26-1.34H18.74A13.36,13.36,0,0,1,24.14,27a14,14,0,0,1,4.39,2.94,13.67,13.67,0,0,1,4,9.71A13,13,0,0,1,32,43.37a13.55,13.55,0,0,1-1.52,3.35,13.09,13.09,0,0,1-2.31,2.78,13.52,13.52,0,0,1-3,2.1l7.43,14.66a2.16,2.16,0,0,0,.2.57,1.39,1.39,0,0,1,.14.6c0,.57-.33.86-1,.86H25.34A1.34,1.34,0,0,1,24,67.23L17.06,53.52h-1l-1.46,0H8.31V67.06c0,.82-.43,1.23-1.31,1.23H1.26A1.36,1.36,0,0,1,.34,68,1.2,1.2,0,0,1,0,67.06ZM24.09,39.65a6.5,6.5,0,0,0-.46-2.38,6.74,6.74,0,0,0-1.29-2.07,6.59,6.59,0,0,0-2-1.48,6.47,6.47,0,0,0-2.48-.66l-2,0H8.31V46.26h8.62c.33,0,.69,0,1.07,0a6.67,6.67,0,0,0,2.47-.63,6,6,0,0,0,1.93-1.44,6.78,6.78,0,0,0,1.69-4.49Z" fill="#44c6e9"/><path d="M77.84,66.61a1.54,1.54,0,0,1-.22.84,1.45,1.45,0,0,1-.56.51,2.31,2.31,0,0,1-.78.26,5.65,5.65,0,0,1-.93.07H71.78a1.49,1.49,0,0,1-1.27-.48A3.28,3.28,0,0,1,70,66.57l-.17-2.42A18.58,18.58,0,0,1,67.59,66,15.3,15.3,0,0,1,65,67.53a15.48,15.48,0,0,1-3,1,14.47,14.47,0,0,1-3.23.36,18.5,18.5,0,0,1-5-.67,19.25,19.25,0,0,1-4.47-1.89,18.21,18.21,0,0,1-3.79-2.93,18.87,18.87,0,0,1-4.79-8.28,18.72,18.72,0,0,1,0-10,18.78,18.78,0,0,1,1.88-4.49,18.55,18.55,0,0,1,6.7-6.7,18.8,18.8,0,0,1,4.47-1.88,18.11,18.11,0,0,1,5-.67,15.24,15.24,0,0,1,3.49.38,14.67,14.67,0,0,1,3.09,1.09A13.72,13.72,0,0,1,68,34.53a16.81,16.81,0,0,1,2.22,2.16l.4-3.06q.15-.51.27-.84a1.77,1.77,0,0,1,.32-.53,1,1,0,0,1,.47-.27,2.88,2.88,0,0,1,.71-.07h2.86a5.5,5.5,0,0,1,.91.08,3.45,3.45,0,0,1,.84.27,1.54,1.54,0,0,1,.58.52,1.49,1.49,0,0,1,.22.82ZM48.12,50.12a11.85,11.85,0,0,0,.8,4.33A11.16,11.16,0,0,0,51.15,58a10.63,10.63,0,0,0,3.36,2.45,9.82,9.82,0,0,0,4.21.9,10.5,10.5,0,0,0,4.33-.9A11.11,11.11,0,0,0,66.55,58a11.44,11.44,0,0,0,2.34-3.58,11.12,11.12,0,0,0,.86-4.33,11,11,0,0,0-.86-4.3,11.6,11.6,0,0,0-2.34-3.59,11.11,11.11,0,0,0-3.5-2.45,10.2,10.2,0,0,0-4.33-.92,9.54,9.54,0,0,0-4.21.92,10.63,10.63,0,0,0-3.36,2.45,11.31,11.31,0,0,0-2.23,3.59A11.73,11.73,0,0,0,48.12,50.12Z" fill="#44c6e9"/><path d="M119.56,33a3.06,3.06,0,0,1-.07.58,1.09,1.09,0,0,1-.13.42L103.88,74a17.43,17.43,0,0,0-3.72.63,18.66,18.66,0,0,0-4.47,1.89c-.38.22-.76.45-1.12.7a.25.25,0,0,1-.37-.3l4.56-11.66L86,34.18a.12.12,0,0,0,0-.09v-.26a1.58,1.58,0,0,1-.14-.71.93.93,0,0,1,.34-.77,1.64,1.64,0,0,1,1.06-.29h5.17a1.69,1.69,0,0,1,1.69,1.2l.51,1.35,1.28,3.58,1.49,4.1c.51,1.41,1,2.82,1.56,4.24s1,2.75,1.48,4,.89,2.37,1.28,3.38.68,1.78.91,2.35l8.46-23a2.17,2.17,0,0,1,.65-.93,1.73,1.73,0,0,1,1.06-.3h5.37a1.66,1.66,0,0,1,1.1.27A.89.89,0,0,1,119.56,33Z" fill="#44c6e9"/><path d="M125,50.07a18.92,18.92,0,0,1,.67-5,18.73,18.73,0,0,1,1.9-4.5,19,19,0,0,1,2.94-3.79,19.06,19.06,0,0,1,8.27-4.8,18.81,18.81,0,0,1,9.95,0,18.72,18.72,0,0,1,13.76,18.1,18.48,18.48,0,0,1-2.57,9.47,19,19,0,0,1-6.73,6.72,18.56,18.56,0,0,1-4.46,1.88,18.54,18.54,0,0,1-9.95,0,18.85,18.85,0,0,1-11.21-8.6,18.51,18.51,0,0,1-1.9-4.47A18.74,18.74,0,0,1,125,50.07Zm8.06,0a11.81,11.81,0,0,0,.8,4.33A10.79,10.79,0,0,0,136.05,58a10.61,10.61,0,0,0,3.38,2.4,10.26,10.26,0,0,0,4.27.88,9.9,9.9,0,0,0,4.19-.88,10.4,10.4,0,0,0,3.33-2.4,11,11,0,0,0,2.18-3.56,12.21,12.21,0,0,0,0-8.64,11.35,11.35,0,0,0-2.18-3.61,10.66,10.66,0,0,0-3.33-2.49,9.49,9.49,0,0,0-4.19-.93,9.84,9.84,0,0,0-4.27.93,10.87,10.87,0,0,0-3.38,2.49,11.12,11.12,0,0,0-2.23,3.61A11.86,11.86,0,0,0,133,50.07Z" fill="#44c6e9"/></g></g></g></svg>